<?xml version="1.0" encoding="UTF-8" standalone="no"?>
<svg
   width="16"
   height="16"
   version="1.1"
   id="svg1"
   sodipodi:docname="RectangleShape2D.svg"
   inkscape:version="1.3.2 (091e20e, 2023-11-25, custom)"
   xmlns:inkscape="http://www.inkscape.org/namespaces/inkscape"
   xmlns:sodipodi="http://sodipodi.sourceforge.net/DTD/sodipodi-0.dtd"
   xmlns="http://www.w3.org/2000/svg"
   xmlns:svg="http://www.w3.org/2000/svg">
  <defs
     id="defs1" />
  <sodipodi:namedview
     id="namedview1"
     pagecolor="#ffffff"
     bordercolor="#000000"
     borderopacity="0.25"
     inkscape:showpageshadow="2"
     inkscape:pageopacity="0.0"
     inkscape:pagecheckerboard="0"
     inkscape:deskcolor="#d1d1d1"
     inkscape:zoom="51.3125"
     inkscape:cx="7.9902558"
     inkscape:cy="7.9902558"
     inkscape:window-width="1278"
     inkscape:window-height="1008"
     inkscape:window-x="1273"
     inkscape:window-y="0"
     inkscape:window-maximized="0"
     inkscape:current-layer="svg1" />
  <path
     fill="none"
     stroke="#5fb2ff"
     stroke-linejoin="round"
     stroke-width="2"
     d="M2 4h12v8H2z"
     id="path1" />
  <path
     style="fill:#ff0000;stroke:#000000;stroke-width:0.00478771"
     d="m 1.7561476,12.958235 c -0.3487389,-0.09379 -0.6218179,-0.37059 -0.7137293,-0.723462 -0.0438618,-0.168397 -0.0438618,-8.3011492 0,-8.4695463 C 1.1354466,3.4080671 1.4093084,3.1333217 1.7645126,3.0408028 1.8662091,3.0143142 2.5666356,3.0109622 8,3.0109622 c 6.712286,0 6.21145,-0.0089 6.455676,0.1146656 0.230301,0.1165156 0.393318,0.3105384 0.481417,0.5729822 l 0.04951,0.1474827 V 8 12.153907 l -0.04951,0.147483 c -0.113579,0.338346 -0.360284,0.568904 -0.704756,0.658628 -0.166085,0.04326 -12.3151592,0.04152 -12.4761894,-0.0018 z M 13.01827,8 V 4.998782 H 8 2.9817296 V 8 11.001218 H 8 13.01827 Z"
     id="path2" />
  <path
     style="fill:#fc7f7f;stroke:#000000;stroke-width:0.00478771;fill-opacity:1"
     d="M 2.6309379,12.96146 1.7442144,12.95006 1.5906246,12.87673 c -0.1935743,-0.09243 -0.36887,-0.264188 -0.4613587,-0.452059 -0.054731,-0.111175 -0.066708,-0.162076 -0.081903,-0.348088 -0.023338,-0.285695 -0.023338,-7.8674651 0,-8.1531599 0.015261,-0.186825 0.027092,-0.2368119 0.083022,-0.3507918 C 1.222317,3.3852832 1.3955174,3.2164021 1.591572,3.122943 L 1.7442144,3.050179 2.2314251,3.034939 C 3.0160984,3.010394 14.075582,3.031069 14.224342,3.057361 c 0.212919,0.037629 0.455885,0.2074679 0.585293,0.4091322 0.03217,0.050137 0.08077,0.1503274 0.107987,0.2226444 l 0.04949,0.1314854 v 4.176771 c 0,4.129253 -4.44e-4,4.178064 -0.03907,4.290324 -0.106698,0.310123 -0.322844,0.529602 -0.62575,0.635398 l -0.124464,0.04347 -5.3300853,0.0031 c -2.9315469,0.0017 -5.7291109,-0.002 -6.2168088,-0.0083 z M 13.037759,8 V 4.9890378 H 8 2.9622412 V 8 11.010962 H 8 13.037759 Z"
     id="path3" />
</svg>
